<svg version="1.1" id="Layer_1" xmlns="http://www.w3.org/2000/svg" xmlns:xlink="http://www.w3.org/1999/xlink" x="0px" y="0px"
	 width="100%" viewBox="0 0 752 564" enable-background="new 0 0 752 564" xml:space="preserve">
<path fill="#FFFFFF" opacity="1.000000" stroke="none" 
	d="
M508.000000,565.000000 
	C338.666656,565.000000 169.833328,565.000000 1.000000,565.000000 
	C1.000000,377.000000 1.000000,189.000000 1.000000,1.000000 
	C251.666672,1.000000 502.333344,1.000000 753.000000,1.000000 
	C753.000000,189.000000 753.000000,377.000000 753.000000,565.000000 
	C671.500000,565.000000 590.000000,565.000000 508.000000,565.000000 
M547.129822,322.241699 
	C548.106445,316.491180 549.083008,310.740662 550.627563,304.393555 
	C551.080811,296.257721 551.534058,288.121887 551.999939,279.089844 
	C551.651550,273.665039 551.565491,268.206573 550.875183,262.825623 
	C550.277649,258.168304 548.994385,253.598907 548.004761,248.151016 
	C546.615417,242.103333 545.247070,236.050705 543.826050,230.010437 
	C543.273560,227.662033 542.602417,225.341537 541.920776,222.286896 
	C538.132874,214.228943 534.589966,206.043259 530.478271,198.154068 
	C527.275696,192.009140 524.016113,185.692047 519.626709,180.411713 
	C511.744812,170.929993 503.496582,161.626526 494.452148,153.276810 
	C487.015167,146.411026 478.202789,141.035065 469.676422,134.378113 
	C462.116791,130.587662 454.557190,126.797218 446.532593,122.459534 
	C442.487946,120.882607 438.491425,119.165688 434.389465,117.755470 
	C422.897980,113.804787 411.299194,110.273224 398.164246,109.989326 
	C394.929047,109.435173 391.697571,108.440865 388.457886,108.413124 
	C380.228851,108.342674 371.991913,108.618324 363.770416,109.011345 
	C362.815125,109.057007 361.215088,110.651505 361.131561,111.631699 
	C359.957520,125.409370 358.994904,139.205063 357.509491,153.340439 
	C357.661926,154.462509 357.814362,155.584579 357.074097,156.946167 
	C347.402588,156.707733 337.920746,157.185486 329.578827,163.667267 
	C330.807556,161.727081 332.036285,159.786880 333.440216,157.570053 
	C330.581482,155.883820 329.327393,153.635147 331.628021,150.416046 
	C332.128784,149.715332 331.978912,148.487869 331.981537,147.502625 
	C332.004944,138.697296 331.866486,129.889099 332.056152,121.087791 
	C332.137177,117.327217 330.376678,115.608170 327.034515,116.111176 
	C323.329071,116.668846 319.599091,117.656395 316.132446,119.074387 
	C310.314819,121.454056 304.697235,124.322670 298.253082,127.004524 
	C293.827789,129.661835 289.402466,132.319138 284.352539,135.262390 
	C281.899445,136.832977 279.446381,138.403564 276.298492,140.053299 
	C271.858551,143.698242 267.418579,147.343185 262.368439,151.283981 
	C259.240906,154.507141 256.113342,157.730301 252.429260,161.318863 
	C247.945267,166.205780 243.461273,171.092682 238.387177,176.313843 
	C236.967468,178.332214 235.375504,180.252335 234.158371,182.386246 
	C229.349350,190.817490 224.657898,199.315781 219.344910,208.212341 
	C218.860886,208.880371 218.243042,209.488327 217.912292,210.225143 
	C208.153015,231.967545 202.747528,254.840469 202.278412,278.577606 
	C202.034439,290.922424 203.655426,303.374908 205.322449,315.658203 
	C206.219269,322.266205 208.992859,328.619476 210.949219,335.880005 
	C211.314835,337.485931 211.398621,339.226318 212.090424,340.676666 
	C217.894577,352.845062 223.229324,365.292328 229.904373,376.970306 
	C234.088074,384.289673 240.337555,390.428314 245.925201,397.761902 
	C249.566910,401.556274 253.208618,405.350616 257.083801,409.767487 
	C267.170837,417.257874 277.257843,424.748260 287.759857,432.827881 
	C293.816742,436.050629 299.873627,439.273346 306.469849,442.903992 
	C312.995728,445.209351 319.521606,447.514709 326.713287,450.188904 
	C334.696350,451.857697 342.679443,453.526489 351.333313,455.656708 
	C365.534393,456.005341 379.735474,456.353973 394.729614,456.788849 
	C395.229553,456.624359 395.729462,456.459900 396.700592,456.541260 
	C397.195465,456.384857 397.690308,456.228424 399.014435,456.190155 
	C411.075653,453.308380 423.136902,450.426605 435.882690,447.417114 
	C436.922272,446.946533 437.961823,446.475922 439.602631,446.028687 
	C440.080048,445.716095 440.557495,445.403503 441.799408,445.125366 
	C463.082092,436.142700 482.645386,424.519562 499.564301,407.645325 
	C502.026276,404.430298 504.488281,401.215302 507.650696,397.934845 
	C512.433777,391.956573 517.216919,385.978271 522.296631,379.395721 
	C526.522339,371.924469 530.748108,364.453186 535.093567,356.287415 
	C537.076721,351.224182 539.059875,346.160980 541.585938,340.632172 
	C543.390625,334.755188 545.195312,328.878204 547.129822,322.241699 
z"/>
<path fill="#C28111" opacity="1.000000" stroke="none" 
	d="
M439.001373,446.005310 
	C437.961823,446.475922 436.922272,446.946533 435.355438,447.131775 
	C433.274261,446.117554 431.720337,445.388672 430.834076,444.972961 
	C431.279022,441.434265 431.842194,438.575745 431.963257,435.698639 
	C432.383881,425.701508 432.634155,415.697296 432.988373,405.697174 
	C433.080200,403.105042 432.727753,401.065155 429.425110,400.967590 
	C426.043640,400.867767 424.964630,398.711121 424.985992,395.610504 
	C425.034546,388.555939 425.172333,381.495605 424.960999,374.446960 
	C424.552429,360.819641 426.872589,346.763184 419.040344,334.210876 
	C418.806335,333.835846 418.937836,333.232758 419.090485,332.467102 
	C421.497162,330.976074 423.712280,329.753937 426.264832,328.679504 
	C427.734467,329.196930 428.866638,329.566681 430.276947,330.160004 
	C434.971924,332.612488 439.388794,334.841370 443.975006,337.369324 
	C450.261383,342.163940 456.326263,346.732727 462.507507,351.138184 
	C472.199219,358.045685 481.042999,365.967743 486.300751,376.701202 
	C491.226318,386.756531 494.793518,397.477203 498.958496,407.905090 
	C482.645386,424.519562 463.082092,436.142700 441.254120,444.865021 
	C440.139679,445.071564 439.570526,445.538452 439.001373,446.005310 
M448.269257,426.087311 
	C446.096680,430.103088 443.924103,434.118896 441.751526,438.134705 
	C442.458374,438.461212 443.165222,438.787720 443.872070,439.114227 
	C446.223419,435.040436 448.777313,431.060516 449.279663,425.892120 
	C449.186005,425.927399 449.092377,425.962646 448.269257,426.087311 
z"/>
<path fill="#E1E1E0" opacity="1.000000" stroke="none" 
	d="
M252.985825,160.953461 
	C256.113342,157.730301 259.240906,154.507141 263.025208,151.195038 
	C266.558899,154.603363 268.133240,158.007935 267.303070,163.120010 
	C266.383301,168.784042 264.991974,174.238953 263.829712,179.730759 
	C261.993134,188.408646 262.662170,197.996780 264.162506,206.880188 
	C265.354034,213.934906 266.203033,220.394073 263.939606,227.326126 
	C262.910309,230.478394 263.134552,234.194031 263.440216,237.595718 
	C264.058777,244.479828 265.366821,251.304367 265.918976,258.191284 
	C266.330261,263.321228 265.661774,268.537720 266.072968,273.667694 
	C266.842834,283.272736 268.027740,292.845062 269.107452,302.423431 
	C269.193176,303.184204 269.886749,303.856537 270.152283,304.620575 
	C271.134583,307.447205 272.674255,310.252747 272.871979,313.143677 
	C273.291504,319.277191 272.977234,325.459503 273.018341,331.621429 
	C273.027161,332.935486 272.763580,334.771118 273.489258,335.471252 
	C276.741364,338.608917 275.924438,342.488617 275.753174,346.433350 
	C273.981079,348.114868 272.412689,349.562744 270.938110,351.100647 
	C267.292419,354.902924 263.279694,358.440521 260.150940,362.633972 
	C252.509735,372.875305 249.768646,385.298981 245.660156,397.096710 
	C240.337555,390.428314 234.088074,384.289673 229.904373,376.970306 
	C223.229324,365.292328 217.894577,352.845062 212.090424,340.676666 
	C211.398621,339.226318 211.314835,337.485931 211.241821,335.322144 
	C215.358521,331.512451 219.182632,328.260681 223.350159,324.974426 
	C225.129517,324.293732 226.565430,323.647491 228.383896,323.000671 
	C234.138321,319.736328 239.552536,316.539337 244.860672,313.174988 
	C246.908844,311.876801 248.959595,310.417877 250.567169,308.633881 
	C252.311798,306.697723 254.649567,304.374359 254.807709,302.087006 
	C255.562790,291.166504 255.949127,280.200317 255.927200,269.251465 
	C255.900589,255.969513 255.197937,242.690018 255.064087,229.406693 
	C255.007492,223.790787 255.966385,218.164993 255.916168,212.548584 
	C255.822723,202.096527 255.283325,191.649033 255.054642,181.196899 
	C255.024658,179.825668 255.406326,178.222412 256.154907,177.097748 
	C258.688568,173.291214 258.408630,169.424500 255.431747,165.892059 
	C254.281982,164.527710 253.781891,162.615875 252.985825,160.953461 
z"/>
<path fill="#D59422" opacity="1.000000" stroke="none" 
	d="
M326.047485,449.820068 
	C319.521606,447.514709 312.995728,445.209351 306.149445,442.322876 
	C297.697815,427.466187 292.522278,412.118958 289.298065,396.002960 
	C288.939941,406.352264 289.015228,416.635162 288.868256,426.914856 
	C288.842773,428.696381 287.876556,430.464417 287.344849,432.238678 
	C277.257843,424.748260 267.170837,417.257874 257.087494,409.046295 
	C258.066711,401.651825 259.046997,394.979248 260.016663,388.305115 
	C261.517242,377.976471 266.347656,368.844879 273.381744,361.793762 
	C279.420502,355.740448 287.715393,351.937836 295.218109,347.457825 
	C301.805450,350.645630 313.192017,347.083282 316.443573,341.137054 
	C317.545624,339.121613 319.383453,337.946686 320.338989,340.405426 
	C321.299561,342.877197 320.885559,345.967316 320.705231,348.762665 
	C320.615540,350.152710 319.379211,351.451111 319.211273,352.856628 
	C318.207733,361.256104 317.652496,369.718750 316.375427,378.072845 
	C315.367706,384.665161 317.113770,387.485870 324.000000,387.602417 
	C324.000000,393.026001 323.622772,398.507629 324.085815,403.917358 
	C324.835358,412.674713 325.991943,421.407074 327.326447,430.096252 
	C327.595642,431.848969 329.539307,433.296783 330.497772,435.004791 
	C331.469299,436.735931 332.804718,438.585724 332.891754,440.434845 
	C333.281677,448.718201 333.141510,448.724792 326.047485,449.820068 
z"/>
<path fill="#C78616" opacity="1.000000" stroke="none" 
	d="
M418.898926,332.735962 
	C418.937836,333.232758 418.806335,333.835846 419.040344,334.210876 
	C426.872589,346.763184 424.552429,360.819641 424.960999,374.446960 
	C425.172333,381.495605 425.034546,388.555939 424.985992,395.610504 
	C424.964630,398.711121 426.043640,400.867767 429.425110,400.967590 
	C432.727753,401.065155 433.080200,403.105042 432.988373,405.697174 
	C432.634155,415.697296 432.383881,425.701508 431.963257,435.698639 
	C431.842194,438.575745 431.279022,441.434265 430.834076,444.972961 
	C431.720337,445.388672 433.274261,446.117554 435.013153,447.195618 
	C423.136902,450.426605 411.075653,453.308380 398.347961,456.102844 
	C397.197479,456.108856 396.713440,456.202148 396.229401,456.295410 
	C395.729462,456.459900 395.229553,456.624359 394.176605,456.447906 
	C392.325470,451.878235 395.206329,452.451385 397.762115,452.357574 
	C399.537781,452.292419 401.297485,451.792084 403.064301,451.486176 
	C403.049316,450.869324 403.034302,450.252441 403.019318,449.635559 
	C401.414093,449.052185 399.704681,448.655334 398.232666,447.833374 
	C396.735474,446.997284 394.328491,445.777435 394.294373,444.665070 
	C394.091705,438.053345 393.812195,431.313507 394.912903,424.847260 
	C395.464325,421.607635 395.616669,419.616913 393.102051,417.568451 
	C390.228455,415.227600 388.399902,412.524994 389.911621,408.476837 
	C390.401398,407.165314 390.141418,405.485046 389.930939,404.015503 
	C388.770782,395.915833 388.662628,387.708282 385.659302,379.819641 
	C384.096893,375.715729 383.409241,370.716339 388.455200,367.267456 
	C389.395874,366.624542 389.661438,362.949249 388.819519,362.127838 
	C386.337036,359.705719 383.143524,358.011871 380.225922,356.036438 
	C379.154449,355.310974 378.076447,354.595154 377.409790,353.842102 
	C382.269043,352.242981 387.014954,351.220947 391.111206,349.000488 
	C400.541626,343.888611 409.656189,338.194061 418.898926,332.735962 
z"/>
<path fill="#E9E9E9" opacity="1.000000" stroke="none" 
	d="
M276.993286,139.974136 
	C279.446381,138.403564 281.899445,136.832977 284.988220,135.284454 
	C286.746552,136.799454 288.752686,138.243637 288.838226,139.793808 
	C289.199341,146.338074 289.096649,152.916122 288.963074,159.477753 
	C288.716858,171.575851 288.264435,183.669830 288.029785,195.768082 
	C287.918732,201.494110 288.116119,207.225983 288.165741,212.955276 
	C288.196747,216.535736 288.315002,220.119568 288.201477,223.695770 
	C288.118011,226.325531 287.280914,228.868622 290.821014,230.331009 
	C292.078247,230.850342 292.544037,233.285583 293.392639,234.886795 
	C291.025909,235.513565 289.610992,235.888260 288.196075,236.262970 
	C288.931396,237.360565 289.720856,238.426987 290.378174,239.569427 
	C290.687836,240.107590 290.887970,240.790710 290.892639,241.409973 
	C290.954254,249.637329 290.974731,257.864990 290.999878,266.092590 
	C291.008392,268.869568 291.001221,271.646606 291.001221,274.712006 
	C293.080322,274.829407 294.537720,274.911682 296.001984,275.346008 
	C296.975281,276.140625 298.662415,277.126434 298.799774,276.944153 
	C300.795502,274.296448 302.583679,271.492310 304.619812,269.008728 
	C310.992310,289.192993 331.361053,295.699829 347.138489,290.545288 
	C347.224792,296.235291 347.246796,301.465851 347.186035,307.159668 
	C346.654053,310.755035 347.346649,315.218811 345.540039,316.767975 
	C340.262787,321.293121 333.988190,324.655121 327.741760,328.610718 
	C326.643158,328.994293 325.907288,329.240143 324.877716,329.379181 
	C324.196686,329.627075 323.809357,329.981750 323.150391,330.427368 
	C322.697693,330.579010 322.516602,330.639740 321.971252,330.512695 
	C317.078278,331.589539 312.549561,332.854095 307.885345,333.784302 
	C304.423553,329.943085 303.819489,325.713318 303.935852,321.044769 
	C304.159546,312.069122 303.945068,303.083435 304.031067,294.103027 
	C304.060150,291.064728 303.600647,289.051483 299.814697,288.807709 
	C298.486389,288.722137 296.300873,286.546661 296.227081,285.229218 
	C295.992737,281.042603 293.415405,280.328979 290.502106,281.160950 
	C288.202087,281.817780 286.367584,283.964020 284.174072,285.172424 
	C281.769348,286.497162 279.254944,287.805054 276.626801,288.373932 
	C276.153839,288.476288 274.217163,285.003784 274.112030,283.117340 
	C273.219238,267.096680 275.323914,251.012741 272.257141,234.976334 
	C271.286591,229.901108 273.854370,224.248688 273.854340,218.860413 
	C273.854340,213.472061 272.018066,208.069946 272.131744,202.698105 
	C272.397308,190.149490 272.875183,177.561722 274.285278,165.105072 
	C274.768311,160.838120 275.520569,157.061646 274.223816,152.773422 
	C273.552216,150.552460 274.887939,147.686157 275.454865,145.142197 
	C275.844879,143.392136 276.472076,141.694946 276.993286,139.974136 
z"/>
<path fill="#CC8C1A" opacity="1.000000" stroke="none" 
	d="
M377.001404,353.874908 
	C378.076447,354.595154 379.154449,355.310974 380.225922,356.036438 
	C383.143524,358.011871 386.337036,359.705719 388.819519,362.127838 
	C389.661438,362.949249 389.395874,366.624542 388.455200,367.267456 
	C383.409241,370.716339 384.096893,375.715729 385.659302,379.819641 
	C388.662628,387.708282 388.770782,395.915833 389.930939,404.015503 
	C390.141418,405.485046 390.401398,407.165314 389.911621,408.476837 
	C388.399902,412.524994 390.228455,415.227600 393.102051,417.568451 
	C395.616669,419.616913 395.464325,421.607635 394.912903,424.847260 
	C393.812195,431.313507 394.091705,438.053345 394.294373,444.665070 
	C394.328491,445.777435 396.735474,446.997284 398.232666,447.833374 
	C399.704681,448.655334 401.414093,449.052185 403.019318,449.635559 
	C403.034302,450.252441 403.049316,450.869324 403.064301,451.486176 
	C401.297485,451.792084 399.537781,452.292419 397.762115,452.357574 
	C395.206329,452.451385 392.325470,451.878235 393.780090,456.404785 
	C379.735474,456.353973 365.534393,456.005341 351.364777,455.260986 
	C356.724091,453.932434 362.051971,452.999573 367.621185,452.024445 
	C367.633942,451.944397 367.834167,451.455719 367.746521,451.025665 
	C367.654938,450.576355 367.329773,449.853333 367.032562,449.814270 
	C359.654297,448.844635 361.422272,443.218140 360.792419,438.462372 
	C360.536041,436.526428 358.411957,433.792389 356.638489,433.328033 
	C353.303925,432.454987 352.719208,430.645874 353.023956,427.934021 
	C353.609100,422.727203 354.945770,417.525330 354.856049,412.340729 
	C354.719910,404.474945 353.644470,396.624512 352.927399,388.771301 
	C352.869995,388.142792 352.682404,387.285553 352.242798,386.970032 
	C348.122345,384.012390 349.022888,379.673737 349.006104,375.594299 
	C348.982147,369.777252 348.859406,363.954987 349.068604,358.145386 
	C349.153442,355.789368 351.154663,352.807953 350.272675,351.248505 
	C348.081116,347.373413 349.940277,345.139862 352.443237,342.725586 
	C354.519714,343.907959 356.265808,344.979675 358.132812,346.264526 
	C358.477997,346.739624 358.761230,346.891479 359.061035,346.940857 
	C359.018616,346.948456 359.058167,346.871857 359.178223,347.133850 
	C359.814850,347.598877 360.331451,347.801910 361.077911,348.273132 
	C366.538971,350.319153 371.770172,352.097046 377.001404,353.874908 
M354.909088,352.404877 
	C355.008545,351.752289 355.107971,351.099701 355.207397,350.447113 
	C354.668762,350.671051 354.130127,350.894989 353.591522,351.118896 
	C353.854645,351.638062 354.117798,352.157227 354.909088,352.404877 
z"/>
<path fill="#F6F6F5" opacity="1.000000" stroke="none" 
	d="
M522.000000,380.000000 
	C517.216919,385.978271 512.433777,391.956573 507.110321,397.653625 
	C504.939758,392.496002 503.156219,387.664612 501.707947,382.734741 
	C497.234100,367.505981 488.366791,355.968323 473.872375,348.618591 
	C471.923187,340.342957 473.191345,332.659882 475.381226,324.801025 
	C479.795074,318.070679 483.950409,311.552185 488.407013,304.885437 
	C493.177734,301.662964 497.598297,298.514069 502.135803,295.543823 
	C504.671967,293.883636 507.402252,292.519928 510.420776,290.974365 
	C515.055969,289.589874 519.318604,288.263733 523.574036,286.914917 
	C528.717529,285.284607 533.855042,283.635101 539.413696,281.996460 
	C543.883972,281.328003 547.935608,280.657043 551.987305,279.986053 
	C551.534058,288.121887 551.080811,296.257721 549.959473,304.704590 
	C544.673706,307.094452 539.986816,309.037292 535.478699,311.331299 
	C534.040222,312.063263 533.075989,313.727081 531.536011,314.968689 
	C527.788574,318.315613 524.399841,321.658417 520.733521,325.200989 
	C517.967468,331.934387 515.479065,338.468048 512.704773,345.267334 
	C511.949707,355.462708 511.387543,365.390076 511.134613,375.325378 
	C511.104553,376.505035 512.547180,378.441071 513.684326,378.787018 
	C516.333984,379.593079 519.213562,379.643463 522.000000,380.000000 
z"/>
<path fill="#D0901E" opacity="1.000000" stroke="none" 
	d="
M352.112885,342.614960 
	C349.940277,345.139862 348.081116,347.373413 350.272675,351.248505 
	C351.154663,352.807953 349.153442,355.789368 349.068604,358.145386 
	C348.859406,363.954987 348.982147,369.777252 349.006104,375.594299 
	C349.022888,379.673737 348.122345,384.012390 352.242798,386.970032 
	C352.682404,387.285553 352.869995,388.142792 352.927399,388.771301 
	C353.644470,396.624512 354.719910,404.474945 354.856049,412.340729 
	C354.945770,417.525330 353.609100,422.727203 353.023956,427.934021 
	C352.719208,430.645874 353.303925,432.454987 356.638489,433.328033 
	C358.411957,433.792389 360.536041,436.526428 360.792419,438.462372 
	C361.422272,443.218140 359.654297,448.844635 367.032562,449.814270 
	C367.329773,449.853333 367.654938,450.576355 367.746521,451.025665 
	C367.834167,451.455719 367.633942,451.944397 367.621185,452.024445 
	C362.051971,452.999573 356.724091,453.932434 351.029358,455.030273 
	C342.679443,453.526489 334.696350,451.857697 326.380371,450.004456 
	C333.141510,448.724792 333.281677,448.718201 332.891754,440.434845 
	C332.804718,438.585724 331.469299,436.735931 330.497772,435.004791 
	C329.539307,433.296783 327.595642,431.848969 327.326447,430.096252 
	C325.991943,421.407074 324.835358,412.674713 324.085815,403.917358 
	C323.622772,398.507629 324.000000,393.026001 324.000000,387.602417 
	C317.113770,387.485870 315.367706,384.665161 316.375427,378.072845 
	C317.652496,369.718750 318.207733,361.256104 319.211273,352.856628 
	C319.379211,351.451111 320.615540,350.152710 320.705231,348.762665 
	C320.885559,345.967316 321.299561,342.877197 320.338989,340.405426 
	C319.383453,337.946686 317.545624,339.121613 316.443573,341.137054 
	C313.192017,347.083282 301.805450,350.645630 295.510559,347.261780 
	C300.668732,344.116364 305.739960,341.484863 310.907288,339.184113 
	C313.724060,340.769073 314.305664,340.256897 315.284637,335.813538 
	C317.824677,333.988037 320.080109,332.344238 322.335510,330.700439 
	C322.516602,330.639740 322.697693,330.579010 323.397003,330.396332 
	C324.333954,330.011566 324.752686,329.748779 325.171417,329.485992 
	C325.907288,329.240143 326.643158,328.994293 328.080475,328.757385 
	C336.558899,333.382568 344.335907,337.998749 352.112885,342.614960 
z"/>
<path fill="#F6F6F5" opacity="1.000000" stroke="none" 
	d="
M470.000000,134.998779 
	C478.202789,141.035065 487.015167,146.411026 494.452148,153.276810 
	C503.496582,161.626526 511.744812,170.929993 519.626709,180.411713 
	C524.016113,185.692047 527.275696,192.009140 530.478271,198.154068 
	C534.589966,206.043259 538.132874,214.228943 541.610046,222.610748 
	C538.488464,220.200378 535.682068,217.461563 532.865479,214.733276 
	C529.910645,211.870987 527.251282,207.088898 523.922363,206.562408 
	C516.906311,205.452728 511.612823,202.673935 506.874023,197.651352 
	C504.208954,194.826752 502.135284,196.615753 501.252319,199.784988 
	C500.773651,201.503143 500.964539,203.481903 500.217560,205.037903 
	C497.628815,210.430618 494.761383,215.689545 491.694763,221.155243 
	C486.926727,227.211517 482.463898,233.111908 477.727783,239.194626 
	C475.640411,241.253159 473.826294,243.129379 471.634369,244.936707 
	C470.504364,242.486679 469.108246,240.108444 469.097321,237.723892 
	C468.951691,205.931656 468.978027,174.138474 469.043182,142.345703 
	C469.048187,139.896088 469.666656,137.447723 470.000000,134.998779 
z"/>
<path fill="#F1F2F3" opacity="1.000000" stroke="none" 
	d="
M469.838196,134.688446 
	C469.666656,137.447723 469.048187,139.896088 469.043182,142.345703 
	C468.978027,174.138474 468.951691,205.931656 469.097321,237.723892 
	C469.108246,240.108444 470.504364,242.486679 471.486694,245.235489 
	C468.141602,249.066696 464.566345,252.530243 460.687988,256.141357 
	C454.936523,261.200195 449.488220,266.111481 443.646118,271.014709 
	C441.940308,271.147705 440.628326,271.288788 439.142944,271.448547 
	C439.927246,273.370819 440.461182,274.679504 440.973175,276.284851 
	C440.645599,277.058838 440.339996,277.536102 439.671448,277.972351 
	C438.040710,277.227814 436.772919,276.524323 435.625000,275.526001 
	C435.808563,274.821350 435.872253,274.411530 436.012146,273.818756 
	C436.088318,273.635773 436.074402,273.239594 436.386169,273.046112 
	C440.396210,265.068298 441.596680,257.148529 437.859253,248.576202 
	C436.285522,244.903336 434.845642,241.622513 433.364685,238.248032 
	C434.828308,237.434570 436.238586,236.650772 438.050537,235.899231 
	C440.783905,234.953354 443.062653,233.811859 445.459625,233.035294 
	C449.059265,231.869064 449.679565,229.021408 446.926117,225.618195 
	C447.448883,224.515472 447.888702,223.737793 448.489990,222.833649 
	C448.839813,222.495346 448.949463,222.248550 448.992615,221.979492 
	C449.004730,221.992203 448.972961,221.982483 449.318115,221.954926 
	C450.583984,221.079071 452.249542,220.280914 452.310516,219.374802 
	C452.938995,210.032425 454.550323,200.497528 449.036163,191.917725 
	C448.283020,190.745911 446.788422,190.050659 445.437866,189.036057 
	C445.034149,188.700241 444.939636,188.425323 444.968414,187.686066 
	C443.855377,183.597870 442.729004,179.936188 441.602631,176.274490 
	C441.184021,176.382248 440.765411,176.490005 440.346802,176.597748 
	C440.557556,173.044861 449.582764,174.623199 445.116119,168.367386 
	C439.326355,167.263763 439.311493,167.232437 442.216339,162.156830 
	C444.261688,158.583008 443.226471,152.012497 439.998413,151.301697 
	C435.194855,150.244034 434.576965,147.447144 434.950806,143.388535 
	C435.208862,140.586761 435.050323,137.741302 434.991486,134.917160 
	C434.935181,132.214539 436.139038,130.901825 438.880219,131.001266 
	C444.391785,131.201218 446.460114,127.873711 446.997559,123.006767 
	C454.557190,126.797218 462.116791,130.587662 469.838196,134.688446 
z"/>
<path fill="#3C45AC" opacity="1.000000" stroke="none" 
	d="
M330.137299,164.078110 
	C337.920746,157.185486 347.402588,156.707733 357.830322,156.907806 
	C361.230347,157.380051 363.874084,157.890671 366.646545,158.426147 
	C368.326050,156.292603 370.044922,154.109024 371.861206,151.918030 
	C371.958557,151.910614 371.974396,151.715973 372.255920,151.558136 
	C382.177917,141.963409 394.115967,140.595840 406.664490,142.039703 
	C418.117889,143.357529 426.546753,149.436874 432.076721,159.972778 
	C431.388794,162.741638 431.319885,165.555237 429.923431,167.315781 
	C424.441040,174.227386 417.416809,178.983231 408.677856,181.090134 
	C395.491577,184.269287 382.472046,182.825745 369.272522,180.782455 
	C356.703796,178.836807 343.971222,177.785782 335.241180,190.577255 
	C332.609772,194.432816 327.229797,193.882080 324.129730,190.192551 
	C322.883148,188.708923 321.578003,187.274490 321.000580,186.616547 
	C321.000580,183.483597 321.000580,181.225433 320.982483,178.680023 
	C321.215546,177.909332 321.466675,177.425903 322.040649,176.830017 
	C322.534729,176.090881 322.705963,175.464218 322.905273,174.888733 
	C322.933319,174.939926 322.820862,174.971283 323.148773,174.793854 
	C323.630371,173.898392 323.784058,173.180344 323.979553,172.143692 
	C326.060059,169.242767 328.098694,166.660446 330.137299,164.078110 
z"/>
<path fill="#E4E4E4" opacity="1.000000" stroke="none" 
	d="
M276.645874,140.013718 
	C276.472076,141.694946 275.844879,143.392136 275.454865,145.142197 
	C274.887939,147.686157 273.552216,150.552460 274.223816,152.773422 
	C275.520569,157.061646 274.768311,160.838120 274.285278,165.105072 
	C272.875183,177.561722 272.397308,190.149490 272.131744,202.698105 
	C272.018066,208.069946 273.854340,213.472061 273.854340,218.860413 
	C273.854370,224.248688 271.286591,229.901108 272.257141,234.976334 
	C275.323914,251.012741 273.219238,267.096680 274.112030,283.117340 
	C274.217163,285.003784 276.153839,288.476288 276.626801,288.373932 
	C279.254944,287.805054 281.769348,286.497162 284.174072,285.172424 
	C286.367584,283.964020 288.202087,281.817780 290.502106,281.160950 
	C293.415405,280.328979 295.992737,281.042603 296.227081,285.229218 
	C296.300873,286.546661 298.486389,288.722137 299.814697,288.807709 
	C303.600647,289.051483 304.060150,291.064728 304.031067,294.103027 
	C303.945068,303.083435 304.159546,312.069122 303.935852,321.044769 
	C303.819489,325.713318 304.423553,329.943085 307.626465,334.040955 
	C297.001862,338.501526 286.500732,342.371124 275.999573,346.240723 
	C275.924438,342.488617 276.741364,338.608917 273.489258,335.471252 
	C272.763580,334.771118 273.027161,332.935486 273.018341,331.621429 
	C272.977234,325.459503 273.291504,319.277191 272.871979,313.143677 
	C272.674255,310.252747 271.134583,307.447205 270.152283,304.620575 
	C269.886749,303.856537 269.193176,303.184204 269.107452,302.423431 
	C268.027740,292.845062 266.842834,283.272736 266.072968,273.667694 
	C265.661774,268.537720 266.330261,263.321228 265.918976,258.191284 
	C265.366821,251.304367 264.058777,244.479828 263.440216,237.595718 
	C263.134552,234.194031 262.910309,230.478394 263.939606,227.326126 
	C266.203033,220.394073 265.354034,213.934906 264.162506,206.880188 
	C262.662170,197.996780 261.993134,188.408646 263.829712,179.730759 
	C264.991974,174.238953 266.383301,168.784042 267.303070,163.120010 
	C268.133240,158.007935 266.558899,154.603363 263.330261,151.047119 
	C267.418579,147.343185 271.858551,143.698242 276.645874,140.013718 
z"/>
<path fill="#D7D7D7" opacity="1.000000" stroke="none" 
	d="
M228.001343,323.001221 
	C226.565430,323.647491 225.129517,324.293732 223.400162,324.557770 
	C223.404480,321.890747 223.956802,319.606445 223.961395,317.321045 
	C224.019974,288.192810 224.034668,259.064362 223.976425,229.936111 
	C223.961227,222.334915 225.554092,214.384979 219.922821,207.789200 
	C224.657898,199.315781 229.349350,190.817490 234.158371,182.386246 
	C235.375504,180.252335 236.967468,178.332214 238.971634,176.361328 
	C243.828461,182.732025 241.868759,190.151230 242.703293,196.986160 
	C243.653091,204.765030 242.086441,212.819748 242.045929,220.756775 
	C241.920364,245.356354 242.056412,269.957245 241.953888,294.557037 
	C241.932587,299.667877 241.490036,304.796661 240.874176,309.872589 
	C240.704361,311.272217 239.405533,312.718750 238.283417,313.784363 
	C234.947174,316.952576 231.441071,319.941956 228.001343,323.001221 
z"/>
<path fill="#D0D0D0" opacity="1.000000" stroke="none" 
	d="
M219.633865,208.000763 
	C225.554092,214.384979 223.961227,222.334915 223.976425,229.936111 
	C224.034668,259.064362 224.019974,288.192810 223.961395,317.321045 
	C223.956802,319.606445 223.404480,321.890747 223.056732,324.592224 
	C219.182632,328.260681 215.358521,331.512451 211.227020,334.925964 
	C208.992859,328.619476 206.219269,322.266205 205.322449,315.658203 
	C203.655426,303.374908 202.034439,290.922424 202.278412,278.577606 
	C202.747528,254.840469 208.153015,231.967545 217.912292,210.225143 
	C218.243042,209.488327 218.860886,208.880371 219.633865,208.000763 
z"/>
<path fill="#DCDCDC" opacity="1.000000" stroke="none" 
	d="
M228.383881,323.000671 
	C231.441071,319.941956 234.947174,316.952576 238.283417,313.784363 
	C239.405533,312.718750 240.704361,311.272217 240.874176,309.872589 
	C241.490036,304.796661 241.932587,299.667877 241.953888,294.557037 
	C242.056412,269.957245 241.920364,245.356354 242.045929,220.756775 
	C242.086441,212.819748 243.653091,204.765030 242.703293,196.986160 
	C241.868759,190.151230 243.828461,182.732025 239.266693,176.194199 
	C243.461273,171.092682 247.945267,166.205780 252.707550,161.136169 
	C253.781891,162.615875 254.281982,164.527710 255.431747,165.892059 
	C258.408630,169.424500 258.688568,173.291214 256.154907,177.097748 
	C255.406326,178.222412 255.024658,179.825668 255.054642,181.196899 
	C255.283325,191.649033 255.822723,202.096527 255.916168,212.548584 
	C255.966385,218.164993 255.007492,223.790787 255.064087,229.406693 
	C255.197937,242.690018 255.900589,255.969513 255.927200,269.251465 
	C255.949127,280.200317 255.562790,291.166504 254.807709,302.087006 
	C254.649567,304.374359 252.311798,306.697723 250.567169,308.633881 
	C248.959595,310.417877 246.908844,311.876801 244.860672,313.174988 
	C239.552536,316.539337 234.138321,319.736328 228.383881,323.000671 
z"/>
<path fill="#E9E9E9" opacity="1.000000" stroke="none" 
	d="
M478.001068,239.012299 
	C482.463898,233.111908 486.926727,227.211517 492.130981,221.155609 
	C496.394714,221.666260 500.125214,221.821960 503.378021,223.148773 
	C506.351837,224.361801 508.754456,226.923767 511.505096,228.745941 
	C516.888000,232.311874 523.014038,235.071243 527.591736,239.458984 
	C533.517212,245.138535 540.031982,248.323135 548.014282,248.990646 
	C548.994385,253.598907 550.277649,258.168304 550.875183,262.825623 
	C551.565491,268.206573 551.651550,273.665039 551.993652,279.537964 
	C547.935608,280.657043 543.883972,281.328003 539.364502,281.655121 
	C536.151001,278.102051 531.566162,276.550903 531.161011,271.140411 
	C531.027161,269.352509 527.996948,267.400940 525.899719,266.217926 
	C521.187378,263.559814 516.263000,261.265869 511.361572,258.958405 
	C507.603088,257.188995 503.632812,255.838501 499.987640,253.873398 
	C498.366760,252.999588 497.245483,251.126266 496.027832,249.602448 
	C495.181763,248.543732 494.818848,246.689713 493.790619,246.255539 
	C488.916016,244.197266 483.875275,242.535080 478.932556,240.631042 
	C478.481171,240.457184 478.305023,239.568848 478.001068,239.012299 
z"/>
<path fill="#F1F2F3" opacity="1.000000" stroke="none" 
	d="
M321.717834,176.942474 
	C321.466675,177.425903 321.215546,177.909332 320.790863,178.998169 
	C320.274689,182.645020 318.695770,184.344772 315.608459,185.079758 
	C313.841431,185.500412 312.295898,186.851425 310.661407,187.848160 
	C310.672150,187.912750 310.541626,187.902466 310.217773,187.904236 
	C308.264099,188.942551 306.634247,189.979095 305.002686,190.599228 
	C304.182312,187.797974 303.394409,185.401947 302.532196,183.032928 
	C302.093811,181.828278 301.055725,180.661484 301.082642,179.495941 
	C301.339142,168.390182 301.179474,157.225754 302.355957,146.208084 
	C303.103668,139.206131 303.539246,132.812515 298.995453,126.985542 
	C304.697235,124.322670 310.314819,121.454056 316.132446,119.074387 
	C319.599091,117.656395 323.329071,116.668846 327.034515,116.111176 
	C330.376678,115.608170 332.137177,117.327217 332.056152,121.087791 
	C331.866486,129.889099 332.004944,138.697296 331.981537,147.502625 
	C331.978912,148.487869 332.128784,149.715332 331.628021,150.416046 
	C329.327393,153.635147 330.581482,155.883820 333.440216,157.570053 
	C332.036285,159.786880 330.807556,161.727081 329.858063,163.872681 
	C328.098694,166.660446 326.060059,169.242767 323.719116,172.389221 
	C323.218201,173.626007 323.019531,174.298645 322.820862,174.971283 
	C322.820862,174.971283 322.933319,174.939926 322.620972,175.035019 
	C322.111694,175.734238 321.914764,176.338364 321.717834,176.942474 
z"/>
<path fill="#EFEFEF" opacity="1.000000" stroke="none" 
	d="
M432.085785,159.533661 
	C426.546753,149.436874 418.117889,143.357529 406.664490,142.039703 
	C394.115967,140.595840 382.177917,141.963409 372.274780,151.204468 
	C373.601776,149.042801 374.803070,146.330597 376.859009,145.260605 
	C381.707397,142.737335 386.963013,140.996536 393.057098,138.533844 
	C393.304565,135.995605 393.793884,132.442535 393.967560,128.874100 
	C394.276184,122.534607 392.197540,115.594498 398.828430,110.969360 
	C399.015259,110.839050 398.944519,110.339439 398.993896,110.012032 
	C411.299194,110.273224 422.897980,113.804787 434.389465,117.755470 
	C438.491425,119.165688 442.487946,120.882607 446.765076,122.733154 
	C446.460114,127.873711 444.391785,131.201218 438.880219,131.001266 
	C436.139038,130.901825 434.935181,132.214539 434.991486,134.917160 
	C435.050323,137.741302 435.208862,140.586761 434.950806,143.388535 
	C434.576965,147.447144 435.194855,150.244034 439.998413,151.301697 
	C443.226471,152.012497 444.261688,158.583008 442.216339,162.156830 
	C439.311493,167.232437 439.326355,167.263763 445.116119,168.367386 
	C449.582764,174.623199 440.557556,173.044861 440.346802,176.597748 
	C440.765411,176.490005 441.184021,176.382248 441.602631,176.274490 
	C442.729004,179.936188 443.855377,183.597870 444.674072,187.512817 
	C439.721344,184.016769 437.511322,179.400253 436.983673,173.211639 
	C436.585968,168.547012 433.805603,164.085556 432.085785,159.533661 
M396.527313,138.082230 
	C396.407837,138.197281 396.265411,138.297958 396.179810,138.434296 
	C396.144165,138.491104 396.229187,138.709869 396.259735,138.709961 
	C400.964905,138.722687 405.670074,138.722107 410.375275,138.722107 
	C410.333557,138.106628 410.291840,137.491165 410.250092,136.875687 
	C405.921326,137.253204 401.592529,137.630707 396.527313,138.082230 
z"/>
<path fill="#EFEFEF" opacity="1.000000" stroke="none" 
	d="
M298.624268,126.995033 
	C303.539246,132.812515 303.103668,139.206131 302.355957,146.208084 
	C301.179474,157.225754 301.339142,168.390182 301.082642,179.495941 
	C301.055725,180.661484 302.093811,181.828278 302.532196,183.032928 
	C303.394409,185.401947 304.182312,187.797974 304.899292,190.831848 
	C304.508301,191.647049 304.218933,191.813217 303.545532,191.993683 
	C301.286835,192.472824 299.412140,192.937637 297.658051,193.372528 
	C297.454590,195.464966 297.270935,197.353729 297.095276,199.605865 
	C291.863861,211.031433 290.853058,222.282364 295.680054,234.134094 
	C296.127960,235.054871 296.489288,235.631622 296.836304,236.205597 
	C296.821960,236.202820 296.806732,236.229904 296.859680,236.561646 
	C297.943024,238.598801 298.973419,240.304214 300.006195,242.393829 
	C301.066986,245.540527 302.125427,248.303009 303.113953,251.385544 
	C302.983887,252.136505 302.923737,252.567413 302.490784,253.097839 
	C300.794006,256.271088 299.520294,259.340393 302.976105,262.326416 
	C303.066345,263.090942 303.067657,263.533447 302.787415,264.202942 
	C302.335785,265.618011 302.165710,266.806061 301.723419,268.182678 
	C299.632538,270.578827 297.813812,272.786407 295.995087,274.993988 
	C294.537720,274.911682 293.080322,274.829407 291.001221,274.712006 
	C291.001221,271.646606 291.008392,268.869568 290.999878,266.092590 
	C290.974731,257.864990 290.954254,249.637329 290.892639,241.409973 
	C290.887970,240.790710 290.687836,240.107590 290.378174,239.569427 
	C289.720856,238.426987 288.931396,237.360565 288.196075,236.262970 
	C289.610992,235.888260 291.025909,235.513565 293.392639,234.886795 
	C292.544037,233.285583 292.078247,230.850342 290.821014,230.331009 
	C287.280914,228.868622 288.118011,226.325531 288.201477,223.695770 
	C288.315002,220.119568 288.196747,216.535736 288.165741,212.955276 
	C288.116119,207.225983 287.918732,201.494110 288.029785,195.768082 
	C288.264435,183.669830 288.716858,171.575851 288.963074,159.477753 
	C289.096649,152.916122 289.199341,146.338074 288.838226,139.793808 
	C288.752686,138.243637 286.746552,136.799454 285.300537,135.141479 
	C289.402466,132.319138 293.827789,129.661835 298.624268,126.995033 
z"/>
<path fill="#E9E9E9" opacity="1.000000" stroke="none" 
	d="
M398.579071,110.000679 
	C398.944519,110.339439 399.015259,110.839050 398.828430,110.969360 
	C392.197540,115.594498 394.276184,122.534607 393.967560,128.874100 
	C393.793884,132.442535 393.304565,135.995605 393.057098,138.533844 
	C386.963013,140.996536 381.707397,142.737335 376.859009,145.260605 
	C374.803070,146.330597 373.601776,149.042801 371.993225,151.362305 
	C371.974396,151.715973 371.958557,151.910614 371.502869,151.951294 
	C369.246552,153.425201 367.445923,154.858414 364.940613,156.852539 
	C363.029968,155.793900 360.505432,154.395142 357.980927,152.996399 
	C358.994904,139.205063 359.957520,125.409370 361.131561,111.631699 
	C361.215088,110.651505 362.815125,109.057007 363.770416,109.011345 
	C371.991913,108.618324 380.228851,108.342674 388.457886,108.413124 
	C391.697571,108.440865 394.929047,109.435173 398.579071,110.000679 
z"/>
<path fill="#EFEFEF" opacity="1.000000" stroke="none" 
	d="
M548.009521,248.570831 
	C540.031982,248.323135 533.517212,245.138535 527.591736,239.458984 
	C523.014038,235.071243 516.888000,232.311874 511.505096,228.745941 
	C508.754456,226.923767 506.351837,224.361801 503.378021,223.148773 
	C500.125214,221.821960 496.394714,221.666260 492.436218,220.999756 
	C494.761383,215.689545 497.628815,210.430618 500.217560,205.037903 
	C500.964539,203.481903 500.773651,201.503143 501.252319,199.784988 
	C502.135284,196.615753 504.208954,194.826752 506.874023,197.651352 
	C511.612823,202.673935 516.906311,205.452728 523.922363,206.562408 
	C527.251282,207.088898 529.910645,211.870987 532.865479,214.733276 
	C535.682068,217.461563 538.488464,220.200378 541.642334,222.971466 
	C542.602417,225.341537 543.273560,227.662033 543.826050,230.010437 
	C545.247070,236.050705 546.615417,242.103333 548.009521,248.570831 
z"/>
<path fill="#FBC96E" opacity="1.000000" stroke="none" 
	d="
M275.753174,346.433350 
	C286.500732,342.371124 297.001862,338.501526 307.761902,334.375305 
	C312.549561,332.854095 317.078278,331.589539 321.971252,330.512695 
	C320.080109,332.344238 317.824677,333.988037 314.974976,335.836975 
	C313.572876,336.631866 312.765076,337.221649 311.710083,337.927612 
	C311.287720,338.344177 311.112579,338.644562 310.914978,338.909485 
	C310.892548,338.874054 310.811218,338.853394 310.811218,338.853394 
	C305.739960,341.484863 300.668732,344.116364 295.305023,346.943909 
	C287.715393,351.937836 279.420502,355.740448 273.381744,361.793762 
	C266.347656,368.844879 261.517242,377.976471 260.016663,388.305115 
	C259.046997,394.979248 258.066711,401.651825 256.970764,408.735046 
	C253.208618,405.350616 249.566910,401.556274 245.792679,397.429321 
	C249.768646,385.298981 252.509735,372.875305 260.150940,362.633972 
	C263.279694,358.440521 267.292419,354.902924 270.938110,351.100647 
	C272.412689,349.562744 273.981079,348.114868 275.753174,346.433350 
z"/>
<path fill="#FBC96E" opacity="1.000000" stroke="none" 
	d="
M473.882172,349.036835 
	C488.366791,355.968323 497.234100,367.505981 501.707947,382.734741 
	C503.156219,387.664612 504.939758,392.496002 506.760101,397.686340 
	C504.488281,401.215302 502.026276,404.430298 499.261414,407.775208 
	C494.793518,397.477203 491.226318,386.756531 486.300751,376.701202 
	C481.042999,365.967743 472.199219,358.045685 462.507507,351.138184 
	C456.326263,346.732727 450.261383,342.163940 444.388123,337.320251 
	C445.747192,337.200562 446.942383,337.244293 447.965302,337.686493 
	C456.622040,341.428741 465.247406,345.243713 473.882172,349.036835 
z"/>
<path fill="#E4E4E4" opacity="1.000000" stroke="none" 
	d="
M512.990662,345.001709 
	C515.479065,338.468048 517.967468,331.934387 521.079712,325.235596 
	C528.150024,330.412903 534.596558,335.755341 541.042969,341.097778 
	C539.059875,346.160980 537.076721,351.224182 534.659912,356.635284 
	C527.096985,353.079285 518.536804,351.711517 512.990662,345.001709 
z"/>
<path fill="#EFEFEF" opacity="1.000000" stroke="none" 
	d="
M512.704773,345.267334 
	C518.536804,351.711517 527.096985,353.079285 534.600037,356.982544 
	C530.748108,364.453186 526.522339,371.924469 522.148315,379.697876 
	C519.213562,379.643463 516.333984,379.593079 513.684326,378.787018 
	C512.547180,378.441071 511.104553,376.505035 511.134613,375.325378 
	C511.387543,365.390076 511.949707,355.462708 512.704773,345.267334 
z"/>
<path fill="#DCDCDC" opacity="1.000000" stroke="none" 
	d="
M541.314453,340.864990 
	C534.596558,335.755341 528.150024,330.412903 521.357361,325.035858 
	C524.399841,321.658417 527.788574,318.315613 531.872925,315.105286 
	C535.628357,316.749481 538.718933,318.202820 541.736267,319.794922 
	C543.549805,320.751892 545.249268,321.925140 547.000000,323.001190 
	C545.195312,328.878204 543.390625,334.755188 541.314453,340.864990 
z"/>
<path fill="#C28111" opacity="1.000000" stroke="none" 
	d="
M287.552368,432.533264 
	C287.876556,430.464417 288.842773,428.696381 288.868256,426.914856 
	C289.015228,416.635162 288.939941,406.352264 289.298065,396.002960 
	C292.522278,412.118958 297.697815,427.466187 305.879761,442.118927 
	C299.873627,439.273346 293.816742,436.050629 287.552368,432.533264 
z"/>
<path fill="#D0D0D0" opacity="1.000000" stroke="none" 
	d="
M547.064941,322.621460 
	C545.249268,321.925140 543.549805,320.751892 541.736267,319.794922 
	C538.718933,318.202820 535.628357,316.749481 532.231689,315.101135 
	C533.075989,313.727081 534.040222,312.063263 535.478699,311.331299 
	C539.986816,309.037292 544.673706,307.094452 549.675476,305.002869 
	C549.083008,310.740662 548.106445,316.491180 547.064941,322.621460 
z"/>
<path fill="#EFEFEF" opacity="1.000000" stroke="none" 
	d="
M357.745209,153.168427 
	C360.505432,154.395142 363.029968,155.793900 364.940613,156.852539 
	C367.445923,154.858414 369.246552,153.425201 371.405487,151.958710 
	C370.044922,154.109024 368.326050,156.292603 366.646545,158.426147 
	C363.874084,157.890671 361.230347,157.380051 358.276672,156.788040 
	C357.814362,155.584579 357.661926,154.462509 357.745209,153.168427 
z"/>
<path fill="#C78616" opacity="1.000000" stroke="none" 
	d="
M439.302002,446.016998 
	C439.570526,445.538452 440.139679,445.071564 440.871887,444.847778 
	C440.557495,445.403503 440.080048,445.716095 439.302002,446.016998 
z"/>
<path fill="#CC8C1A" opacity="1.000000" stroke="none" 
	d="
M396.464996,456.418335 
	C396.713440,456.202148 397.197479,456.108856 397.933350,456.043762 
	C397.690308,456.228424 397.195465,456.384857 396.464996,456.418335 
z"/>
<path fill="#FDB6AC" opacity="1.000000" stroke="none" 
	d="
M352.443237,342.725586 
	C344.335907,337.998749 336.558899,333.382568 328.443237,328.619690 
	C333.988190,324.655121 340.262787,321.293121 345.540039,316.767975 
	C347.346649,315.218811 346.654053,310.755035 347.399841,306.900818 
	C348.834381,299.776093 349.972382,293.373413 351.450867,287.019226 
	C355.562958,285.998047 359.334564,284.928436 363.424927,283.885864 
	C364.170258,283.942596 364.596771,283.972260 365.008667,284.004242 
	C364.994019,284.006531 364.991516,283.976990 365.090698,284.210632 
	C365.465118,284.628204 365.740326,284.812103 366.006897,284.997681 
	C365.998230,284.999390 366.008026,284.983429 366.040619,285.328125 
	C376.512665,299.791107 389.390594,309.528961 408.285858,309.262878 
	C408.002686,317.084290 411.506439,321.919861 418.423157,324.683044 
	C421.022278,325.721405 423.431580,327.234924 425.927429,328.531799 
	C423.712280,329.753937 421.497162,330.976074 419.090454,332.467102 
	C409.656189,338.194061 400.541626,343.888611 391.111206,349.000488 
	C387.014954,351.220947 382.269043,352.242981 377.409790,353.842102 
	C371.770172,352.097046 366.538971,350.319153 360.973267,348.004852 
	C360.111908,347.269562 359.585052,347.070709 359.058167,346.871857 
	C359.058167,346.871857 359.018616,346.948456 358.962097,346.706665 
	C358.607697,346.327026 358.309784,346.189240 358.011871,346.051392 
	C356.265808,344.979675 354.519714,343.907959 352.443237,342.725586 
z"/>
<path fill="#D0D0D0" opacity="1.000000" stroke="none" 
	d="
M473.872375,348.618591 
	C465.247406,345.243713 456.622040,341.428741 447.965302,337.686493 
	C446.942383,337.244293 445.747192,337.200562 444.218750,337.021179 
	C439.388794,334.841370 434.971924,332.612488 430.283752,329.696899 
	C430.702148,318.681152 431.391876,308.352142 432.473694,298.015533 
	C435.370819,298.716187 439.032013,295.422852 440.384644,299.244995 
	C442.128937,304.173828 445.187683,307.432281 449.447174,310.144135 
	C450.876862,311.054382 451.110443,313.831360 452.537994,314.759430 
	C455.629028,316.768860 459.292053,317.890656 462.417603,319.857727 
	C464.244537,321.007538 465.353455,323.241150 467.038116,324.694183 
	C468.162140,325.663666 469.709839,326.599823 471.107239,326.661560 
	C472.418884,326.719543 473.782166,325.609161 475.122711,325.012878 
	C473.191345,332.659882 471.923187,340.342957 473.872375,348.618591 
z"/>
<path fill="#EFEFEF" opacity="1.000000" stroke="none" 
	d="
M432.081635,298.023102 
	C431.391876,308.352142 430.702148,318.681152 430.005615,329.473328 
	C428.866638,329.566681 427.734467,329.196930 426.264832,328.679504 
	C423.431580,327.234924 421.022278,325.721405 418.423157,324.683044 
	C411.506439,321.919861 408.002686,317.084290 408.327881,308.829651 
	C407.610107,304.102844 407.153748,300.069611 407.078125,296.018127 
	C409.313416,295.335022 411.167938,294.670166 413.231140,293.897888 
	C413.701813,293.599304 413.881927,293.349182 414.217621,293.006226 
	C414.455078,292.972382 414.931488,292.915710 415.313995,292.898254 
	C417.779816,291.567505 419.863098,290.254211 421.970764,288.971680 
	C421.995117,289.002441 421.939240,288.944794 422.157227,288.905945 
	C422.659790,288.740509 422.862213,288.533539 423.167664,288.117249 
	C423.352783,287.988220 423.796387,287.905334 424.050476,287.848389 
	C424.536713,287.541229 424.768860,287.290955 425.003052,287.015228 
	C425.005096,286.989746 425.051605,287.011017 425.252258,286.959717 
	C425.716248,286.778412 425.891418,286.573181 426.189972,286.094299 
	C426.868317,285.567169 427.335144,285.238403 428.058258,284.831665 
	C428.524719,284.474060 428.734894,284.194366 428.968628,283.956055 
	C428.992218,283.997406 428.922150,283.932861 429.305145,283.939087 
	C430.434143,282.922668 431.180145,281.900024 431.977600,280.670227 
	C432.194519,280.232391 432.352631,279.996857 432.555969,279.669525 
	C432.608551,279.582642 432.668213,279.388458 432.859863,279.267395 
	C433.266510,278.913330 433.389862,278.639008 433.343201,278.319000 
	C433.264923,278.314636 433.368164,278.432678 433.566681,278.346497 
	C433.765198,278.260345 434.132996,278.032959 434.329224,277.885803 
	C434.758575,277.493713 434.902283,277.204376 434.971069,276.660187 
	C435.048096,276.148712 435.221313,275.939087 435.505127,275.820831 
	C436.772919,276.524323 438.040710,277.227814 439.603546,278.322021 
	C437.292908,285.149536 434.687286,291.586304 432.081635,298.023102 
z"/>
<path fill="#C78616" opacity="1.000000" stroke="none" 
	d="
M449.002106,426.001221 
	C448.777313,431.060516 446.223419,435.040436 443.872070,439.114227 
	C443.165222,438.787720 442.458374,438.461212 441.751526,438.134705 
	C443.924103,434.118896 446.096680,430.103088 448.634644,426.043640 
	C449.000000,426.000000 449.002106,426.001221 449.002106,426.001221 
z"/>
<path fill="#C78616" opacity="1.000000" stroke="none" 
	d="
M448.999390,425.998962 
	C449.092377,425.962646 449.186005,425.927399 449.140869,425.946655 
	C449.002106,426.001221 449.000000,426.000000 448.999390,425.998962 
z"/>
<path fill="#202367" opacity="1.000000" stroke="none" 
	d="
M302.863586,252.998306 
	C302.923737,252.567413 302.983887,252.136505 303.440735,251.179810 
	C304.869629,246.748062 302.976929,244.139267 300.003815,242.009628 
	C298.973419,240.304214 297.943024,238.598801 297.281616,236.489868 
	C309.037811,234.699844 318.960480,230.618286 324.553162,219.897400 
	C326.684052,215.812622 327.369598,210.996826 329.179474,206.710800 
	C329.949615,204.887039 331.642487,202.855377 333.399536,202.184540 
	C336.102753,201.152435 337.293335,203.255600 338.128632,205.818176 
	C338.552551,207.118576 340.253326,208.419449 341.658539,208.905258 
	C345.899261,210.371399 350.214020,211.873077 354.623352,212.521973 
	C358.086395,213.031631 362.309052,213.363373 365.146515,211.832336 
	C368.425537,210.063065 369.953125,209.733810 371.798279,213.022919 
	C372.212463,213.761200 373.447327,214.039093 374.093384,214.782288 
	C372.287750,216.142685 370.657867,217.202911 369.109131,218.370789 
	C367.747253,219.397736 365.713654,220.317841 365.307129,221.681702 
	C364.055359,225.881378 363.440948,230.271042 362.270874,234.793457 
	C361.382629,236.492859 360.802399,237.985687 359.919159,239.699417 
	C353.579102,248.602051 344.674896,252.836945 334.520203,255.464569 
	C336.334961,262.973358 338.381195,269.543854 347.101105,270.833893 
	C347.812592,270.939148 348.352539,272.204224 348.618591,273.179810 
	C347.868042,278.981445 347.471100,284.533661 347.074188,290.085846 
	C331.361053,295.699829 310.992310,289.192993 304.609314,269.026794 
	C304.400482,268.761658 304.389923,268.729431 304.338379,268.376587 
	C303.880890,266.674438 303.474945,265.325195 303.068970,263.975922 
	C303.067657,263.533447 303.066345,263.090942 303.026794,261.878052 
	C302.946869,258.404541 302.905243,255.701416 302.863586,252.998306 
z"/>
<path fill="#F38680" opacity="1.000000" stroke="none" 
	d="
M347.138489,290.545288 
	C347.471100,284.533661 347.868042,278.981445 348.981750,273.256165 
	C353.027863,274.310699 353.298492,276.961548 352.747559,279.883301 
	C352.298676,282.264038 351.663147,284.609619 351.110382,286.970764 
	C349.972382,293.373413 348.834381,299.776093 347.482605,306.437592 
	C347.246796,301.465851 347.224792,296.235291 347.138489,290.545288 
z"/>
<path fill="#E4E4E4" opacity="1.000000" stroke="none" 
	d="
M296.001984,275.346008 
	C297.813812,272.786407 299.632538,270.578827 302.016479,268.306641 
	C303.184479,268.404510 303.787201,268.566956 304.389923,268.729431 
	C304.389923,268.729431 304.400482,268.761658 304.410980,268.743591 
	C302.583679,271.492310 300.795502,274.296448 298.799774,276.944153 
	C298.662415,277.126434 296.975281,276.140625 296.001984,275.346008 
z"/>
<path fill="#FBC96E" opacity="1.000000" stroke="none" 
	d="
M324.877716,329.379181 
	C324.752686,329.748779 324.333954,330.011566 323.668640,330.305389 
	C323.809357,329.981750 324.196686,329.627075 324.877716,329.379181 
z"/>
<path fill="#D0901E" opacity="1.000000" stroke="none" 
	d="
M354.645020,352.540649 
	C354.117798,352.157227 353.854645,351.638062 353.591492,351.118896 
	C354.130127,350.894989 354.668762,350.671051 355.207397,350.447113 
	C355.107971,351.099701 355.008545,351.752289 354.645020,352.540649 
z"/>
<path fill="#D0901E" opacity="1.000000" stroke="none" 
	d="
M359.178223,347.133850 
	C359.585052,347.070709 360.111908,347.269562 360.743439,347.736694 
	C360.331451,347.801910 359.814850,347.598877 359.178223,347.133850 
z"/>
<path fill="#D0901E" opacity="1.000000" stroke="none" 
	d="
M358.132812,346.264557 
	C358.309784,346.189240 358.607697,346.327026 359.004547,346.699036 
	C358.761230,346.891479 358.477997,346.739624 358.132812,346.264557 
z"/>
<path fill="#E1E1E0" opacity="1.000000" stroke="none" 
	d="
M477.727783,239.194626 
	C478.305023,239.568848 478.481171,240.457184 478.932556,240.631042 
	C483.875275,242.535080 488.916016,244.197266 493.790619,246.255539 
	C494.818848,246.689713 495.181763,248.543732 496.027832,249.602448 
	C497.245483,251.126266 498.366760,252.999588 499.987640,253.873398 
	C503.632812,255.838501 507.603088,257.188995 511.361572,258.958405 
	C516.263000,261.265869 521.187378,263.559814 525.899719,266.217926 
	C527.996948,267.400940 531.027161,269.352509 531.161011,271.140411 
	C531.566162,276.550903 536.151001,278.102051 538.945923,281.652588 
	C533.855042,283.635101 528.717529,285.284607 523.574036,286.914917 
	C519.318604,288.263733 515.055969,289.589874 510.079712,290.825378 
	C507.845154,289.091827 506.339447,287.447571 504.806244,285.829376 
	C503.338501,284.280243 502.065826,282.402649 500.311401,281.298920 
	C496.767334,279.069397 490.815826,278.076141 489.696869,275.119751 
	C487.344208,268.903595 483.310059,269.107605 478.437012,268.888275 
	C476.617126,268.806396 473.792816,267.902954 473.248627,266.608246 
	C470.851532,260.905457 466.127106,258.302673 460.991089,255.993805 
	C464.566345,252.530243 468.141602,249.066696 471.864502,245.304352 
	C473.826294,243.129379 475.640411,241.253159 477.727783,239.194626 
z"/>
<path fill="#DCDCDC" opacity="1.000000" stroke="none" 
	d="
M460.687988,256.141357 
	C466.127106,258.302673 470.851532,260.905457 473.248627,266.608246 
	C473.792816,267.902954 476.617126,268.806396 478.437012,268.888275 
	C483.310059,269.107605 487.344208,268.903595 489.696869,275.119751 
	C490.815826,278.076141 496.767334,279.069397 500.311401,281.298920 
	C502.065826,282.402649 503.338501,284.280243 504.806244,285.829376 
	C506.339447,287.447571 507.845154,289.091827 509.703979,290.873657 
	C507.402252,292.519928 504.671967,293.883636 502.135803,295.543823 
	C497.598297,298.514069 493.177734,301.662964 488.071106,304.894531 
	C486.157013,303.825317 485.045685,302.332397 483.574768,301.417786 
	C476.799683,297.205231 469.930176,293.144135 463.069092,289.071564 
	C462.695190,288.849609 462.087585,288.967468 461.595337,289.007751 
	C458.569611,289.255310 457.214050,288.123138 456.845490,284.855560 
	C456.455933,281.402252 452.489105,280.153778 449.633820,281.981232 
	C448.416260,282.760498 446.902557,283.076996 445.523438,283.603821 
	C445.033173,281.967438 444.499725,280.342407 444.065125,278.691406 
	C443.657440,277.142609 443.354187,275.566284 443.127625,273.707275 
	C443.513489,272.615875 443.776703,271.819336 444.039917,271.022766 
	C449.488220,266.111481 454.936523,261.200195 460.687988,256.141357 
z"/>
<path fill="#D7D7D7" opacity="1.000000" stroke="none" 
	d="
M443.004974,274.002075 
	C443.354187,275.566284 443.657440,277.142609 444.065125,278.691406 
	C444.499725,280.342407 445.033173,281.967438 445.523438,283.603821 
	C446.902557,283.076996 448.416260,282.760498 449.633820,281.981232 
	C452.489105,280.153778 456.455933,281.402252 456.845490,284.855560 
	C457.214050,288.123138 458.569611,289.255310 461.595337,289.007751 
	C462.087585,288.967468 462.695190,288.849609 463.069092,289.071564 
	C469.930176,293.144135 476.799683,297.205231 483.574768,301.417786 
	C485.045685,302.332397 486.157013,303.825317 487.769836,305.042786 
	C483.950409,311.552185 479.795074,318.070679 475.381226,324.801025 
	C473.782166,325.609161 472.418884,326.719543 471.107239,326.661560 
	C469.709839,326.599823 468.162140,325.663666 467.038116,324.694183 
	C465.353455,323.241150 464.244537,321.007538 462.417603,319.857727 
	C459.292053,317.890656 455.629028,316.768860 452.537994,314.759430 
	C451.110443,313.831360 450.876862,311.054382 449.447174,310.144135 
	C445.187683,307.432281 442.128937,304.173828 440.384644,299.244995 
	C439.032013,295.422852 435.370819,298.716187 432.473694,298.015533 
	C434.687286,291.586304 437.292908,285.149536 439.966461,278.363068 
	C440.339996,277.536102 440.645599,277.058838 441.240479,276.168732 
	C442.021515,275.171326 442.513245,274.586700 443.004974,274.002075 
z"/>
<path fill="#D59422" opacity="1.000000" stroke="none" 
	d="
M311.957275,337.811432 
	C312.765076,337.221649 313.572876,336.631866 314.690338,336.018677 
	C314.305664,340.256897 313.724060,340.769073 310.907288,339.184113 
	C310.811218,338.853394 310.892548,338.874054 311.161407,338.801025 
	C311.605927,338.422455 311.781616,338.116943 311.957275,337.811432 
z"/>
<path fill="#262C85" opacity="1.000000" stroke="none" 
	d="
M374.304382,214.528931 
	C373.447327,214.039093 372.212463,213.761200 371.798279,213.022919 
	C369.953125,209.733810 368.425537,210.063065 365.146515,211.832336 
	C362.309052,213.363373 358.086395,213.031631 354.623352,212.521973 
	C350.214020,211.873077 345.899261,210.371399 341.658539,208.905258 
	C340.253326,208.419449 338.552551,207.118576 338.128632,205.818176 
	C337.293335,203.255600 336.102753,201.152435 333.399536,202.184540 
	C331.642487,202.855377 329.949615,204.887039 329.179474,206.710800 
	C327.369598,210.996826 326.684052,215.812622 324.553162,219.897400 
	C318.960480,230.618286 309.037811,234.699844 297.228668,236.158112 
	C296.806732,236.229904 296.821960,236.202820 296.846985,235.835052 
	C296.445831,234.908203 296.019653,234.349136 295.593506,233.790054 
	C290.853058,222.282364 291.863861,211.031433 297.418884,199.498535 
	C299.799500,196.678345 301.864532,194.328857 303.929565,191.979370 
	C304.218933,191.813217 304.508301,191.647049 304.901062,191.248260 
	C306.634247,189.979095 308.264099,188.942551 310.374939,188.007904 
	C310.965942,188.162201 311.075897,188.214600 311.185883,188.266998 
	C311.007477,188.105850 310.829071,187.944702 310.650665,187.783569 
	C312.295898,186.851425 313.841431,185.500412 315.608459,185.079758 
	C318.695770,184.344772 320.274689,182.645020 320.808960,179.285416 
	C321.000580,181.225433 321.000580,183.483597 321.000580,186.616547 
	C321.578003,187.274490 322.883148,188.708923 324.129730,190.192551 
	C327.229797,193.882080 332.609772,194.432816 335.241180,190.577255 
	C343.971222,177.785782 356.703796,178.836807 369.272522,180.782455 
	C382.472046,182.825745 395.491577,184.269287 408.677856,181.090134 
	C417.416809,178.983231 424.441040,174.227386 429.923431,167.315781 
	C431.319885,165.555237 431.388794,162.741638 432.076721,159.972778 
	C433.805603,164.085556 436.585968,168.547012 436.983673,173.211639 
	C437.511322,179.400253 439.721344,184.016769 444.660767,187.939316 
	C444.939636,188.425323 445.034149,188.700241 445.566895,189.379364 
	C449.749329,195.682617 451.739441,202.186829 451.364014,209.127625 
	C451.130554,213.443054 449.807159,217.699539 448.972961,221.982483 
	C448.972961,221.982483 449.004730,221.992203 448.805878,222.086670 
	C448.364044,222.387115 448.271210,222.646774 448.328522,222.960129 
	C447.888702,223.737793 447.448883,224.515472 446.649872,225.798859 
	C443.410034,229.492035 440.529419,232.679504 437.648834,235.866974 
	C436.238586,236.650772 434.828308,237.434570 433.364685,238.248032 
	C434.845642,241.622513 436.285522,244.903336 437.811951,248.832001 
	C436.737549,252.070541 435.576630,254.661255 434.224304,257.679108 
	C435.597656,257.379059 436.686279,257.141205 438.613770,256.720093 
	C437.704651,262.634186 436.889526,267.936890 436.074402,273.239594 
	C436.074402,273.239594 436.088318,273.635773 435.658386,273.868378 
	C434.887268,275.114258 434.546143,276.127533 434.176819,277.114258 
	C434.148621,277.087708 434.225494,277.093903 433.939270,277.200226 
	C433.558075,277.681915 433.463104,278.057312 433.368164,278.432678 
	C433.368164,278.432678 433.264923,278.314636 433.029846,278.322632 
	C432.752563,278.683228 432.710388,279.035858 432.668213,279.388458 
	C432.668213,279.388458 432.608551,279.582642 432.143677,279.432434 
	C430.787628,277.630554 429.277740,276.037354 429.115112,274.316864 
	C428.496307,267.768921 430.941284,260.602234 424.931732,254.978546 
	C430.194397,242.110748 429.066193,229.644592 424.130096,217.404541 
	C423.069397,214.774292 421.025970,211.283279 418.762909,210.670090 
	C414.694092,209.567596 413.247437,206.549545 411.026489,203.955292 
	C411.009430,203.988724 411.080963,203.965897 411.016541,203.660645 
	C410.307190,202.572128 409.662262,201.788849 408.923523,200.711975 
	C407.855896,199.379440 406.882019,198.340454 405.810486,197.019562 
	C405.373383,196.558487 405.034027,196.379303 404.788147,196.229553 
	C404.881683,196.258957 404.767975,196.418671 404.705536,196.074524 
	C404.015808,195.559021 403.388519,195.387665 402.823486,195.196457 
	C402.885773,195.176605 402.860138,195.304794 402.772949,194.925903 
	C397.832031,190.811127 392.486298,191.547043 386.818909,192.899384 
	C386.378082,192.987701 386.198700,193.006561 385.643433,193.086472 
	C384.541260,196.142685 383.815002,199.137848 383.082520,202.086212 
	C383.076233,202.039398 383.169769,202.052567 382.821594,202.163971 
	C382.021423,203.570206 381.569458,204.865067 381.108032,206.110138 
	C381.098602,206.060349 381.187531,206.108932 380.800842,206.114975 
	C379.984192,207.181656 379.554199,208.242310 379.065399,209.537781 
	C378.560730,210.230392 378.114868,210.688187 377.255554,211.130051 
	C376.387024,211.876144 375.931946,212.638199 375.435425,213.399445 
	C375.393982,213.398666 375.361450,213.322479 375.056915,213.326935 
	C374.593140,213.677414 374.433899,214.023422 374.298279,214.406311 
	C374.321838,214.443176 374.304382,214.528931 374.304382,214.528931 
z"/>
<path fill="#EFEFEF" opacity="1.000000" stroke="none" 
	d="
M449.318115,221.954926 
	C449.807159,217.699539 451.130554,213.443054 451.364014,209.127625 
	C451.739441,202.186829 449.749329,195.682617 445.766174,189.478058 
	C446.788422,190.050659 448.283020,190.745911 449.036163,191.917725 
	C454.550323,200.497528 452.938995,210.032425 452.310516,219.374802 
	C452.249542,220.280914 450.583984,221.079071 449.318115,221.954926 
z"/>
<path fill="#202367" opacity="1.000000" stroke="none" 
	d="
M436.386169,273.046112 
	C436.889526,267.936890 437.704651,262.634186 438.613770,256.720093 
	C436.686279,257.141205 435.597656,257.379059 434.224304,257.679108 
	C435.576630,254.661255 436.737549,252.070541 437.945801,249.224045 
	C441.596680,257.148529 440.396210,265.068298 436.386169,273.046112 
z"/>
<path fill="#EFEFEF" opacity="1.000000" stroke="none" 
	d="
M438.050537,235.899231 
	C440.529419,232.679504 443.410034,229.492035 446.566895,226.123901 
	C449.679565,229.021408 449.059265,231.869064 445.459625,233.035294 
	C443.062653,233.811859 440.783905,234.953354 438.050537,235.899231 
z"/>
<path fill="#EFEFEF" opacity="1.000000" stroke="none" 
	d="
M443.127625,273.707275 
	C442.513245,274.586700 442.021515,275.171326 441.262451,275.872040 
	C440.461182,274.679504 439.927246,273.370819 439.142944,271.448547 
	C440.628326,271.288788 441.940308,271.147705 443.646118,271.014709 
	C443.776703,271.819336 443.513489,272.615875 443.127625,273.707275 
z"/>
<path fill="#202367" opacity="1.000000" stroke="none" 
	d="
M434.204987,277.140808 
	C434.546143,276.127533 434.887268,275.114258 435.582184,274.051361 
	C435.872253,274.411530 435.808563,274.821350 435.625000,275.526001 
	C435.221313,275.939087 435.048096,276.148712 434.784546,276.731628 
	C434.583618,277.013519 434.204987,277.140808 434.204987,277.140808 
z"/>
<path fill="#EFEFEF" opacity="1.000000" stroke="none" 
	d="
M448.489990,222.833649 
	C448.271210,222.646774 448.364044,222.387115 448.793762,222.073944 
	C448.949463,222.248550 448.839813,222.495346 448.489990,222.833649 
z"/>
<path fill="#262C85" opacity="1.000000" stroke="none" 
	d="
M323.148773,174.793854 
	C323.019531,174.298645 323.218201,173.626007 323.677277,172.707825 
	C323.784058,173.180344 323.630371,173.898392 323.148773,174.793854 
z"/>
<path fill="#262C85" opacity="1.000000" stroke="none" 
	d="
M322.040649,176.830017 
	C321.914764,176.338364 322.111694,175.734238 322.592896,174.983826 
	C322.705963,175.464218 322.534729,176.090881 322.040649,176.830017 
z"/>
<path fill="#E9E9E9" opacity="1.000000" stroke="none" 
	d="
M396.895508,138.045227 
	C401.592529,137.630707 405.921326,137.253204 410.250092,136.875687 
	C410.291840,137.491165 410.333557,138.106628 410.375275,138.722107 
	C405.670074,138.722107 400.964905,138.722687 396.259735,138.709961 
	C396.229187,138.709869 396.144165,138.491104 396.179810,138.434296 
	C396.265411,138.297958 396.407837,138.197281 396.895508,138.045227 
z"/>
<path fill="#F1F2F3" opacity="1.000000" stroke="none" 
	d="
M303.545532,191.993698 
	C301.864532,194.328857 299.799500,196.678345 297.410858,199.135147 
	C297.270935,197.353729 297.454590,195.464966 297.658051,193.372528 
	C299.412140,192.937637 301.286835,192.472824 303.545532,191.993698 
z"/>
<path fill="#E9E9E9" opacity="1.000000" stroke="none" 
	d="
M300.006195,242.393829 
	C302.976929,244.139267 304.869629,246.748062 303.510681,250.859741 
	C302.125427,248.303009 301.066986,245.540527 300.006195,242.393829 
z"/>
<path fill="#E9E9E9" opacity="1.000000" stroke="none" 
	d="
M302.490784,253.097839 
	C302.905243,255.701416 302.946869,258.404541 302.937866,261.556000 
	C299.520294,259.340393 300.794006,256.271088 302.490784,253.097839 
z"/>
<path fill="#E9E9E9" opacity="1.000000" stroke="none" 
	d="
M304.338379,268.376587 
	C303.787201,268.566956 303.184479,268.404510 302.288696,268.118073 
	C302.165710,266.806061 302.335785,265.618011 302.787445,264.202942 
	C303.474945,265.325195 303.880890,266.674438 304.338379,268.376587 
z"/>
<path fill="#202367" opacity="1.000000" stroke="none" 
	d="
M295.680054,234.134094 
	C296.019653,234.349136 296.445831,234.908203 296.861328,235.837830 
	C296.489288,235.631622 296.127960,235.054871 295.680054,234.134094 
z"/>
<path fill="#D0901E" opacity="1.000000" stroke="none" 
	d="
M311.710083,337.927612 
	C311.781616,338.116943 311.605927,338.422455 311.183838,338.836456 
	C311.112579,338.644562 311.287720,338.344177 311.710083,337.927612 
z"/>
<path fill="#FCC2BC" opacity="1.000000" stroke="none" 
	d="
M351.450867,287.019226 
	C351.663147,284.609619 352.298676,282.264038 352.747559,279.883301 
	C353.298492,276.961548 353.027863,274.310699 349.335388,273.006714 
	C348.352539,272.204224 347.812592,270.939148 347.101105,270.833893 
	C338.381195,269.543854 336.334961,262.973358 334.520203,255.464569 
	C344.674896,252.836945 353.579102,248.602051 360.320496,239.818146 
	C366.163696,239.474548 371.302582,239.233139 375.546509,239.033768 
	C377.653076,243.758224 379.301758,247.455750 380.967896,251.114365 
	C380.985321,251.075470 380.912079,251.031998 380.955414,251.308609 
	C381.103516,251.739731 381.208252,251.894226 381.366699,252.289886 
	C381.848663,252.978714 382.276917,253.426376 382.883728,254.188629 
	C390.559937,261.461090 397.802429,260.122589 401.716614,250.675659 
	C403.326538,246.790070 403.858643,242.457886 404.966583,237.983276 
	C406.484985,237.871490 408.417816,237.729187 410.433990,237.580750 
	C412.252625,244.421127 412.674835,251.652832 418.974426,256.444885 
	C418.994720,257.238556 419.022339,257.691650 419.023346,258.378113 
	C418.996704,258.611420 418.853455,259.058716 418.588440,259.369659 
	C417.265594,270.766388 419.774536,282.216217 414.931488,292.915710 
	C414.931488,292.915710 414.455078,292.972382 413.999573,293.100342 
	C413.272064,293.421356 413.098175,293.680389 413.022461,294.005310 
	C411.167938,294.670166 409.313416,295.335022 406.651825,295.990906 
	C393.700958,295.676270 381.909485,293.933136 371.204681,287.629456 
	C369.532837,286.644958 367.743195,285.860443 366.008026,284.983429 
	C366.008026,284.983429 365.998230,284.999390 365.938599,284.742035 
	C365.583160,284.315460 365.287323,284.146210 364.991516,283.976990 
	C364.991516,283.976990 364.994019,284.006531 364.976868,283.711792 
	C364.655029,283.091797 364.350311,282.766510 364.045593,282.441223 
	C363.732452,282.913757 363.419281,283.386292 363.106140,283.858826 
	C359.334564,284.928436 355.562958,285.998047 351.450867,287.019226 
M408.933075,255.745285 
	C409.177826,258.658051 409.422577,261.570831 409.662720,264.428833 
	C407.230896,265.005768 405.095337,265.512421 402.959778,266.019104 
	C403.019073,266.557465 403.078369,267.095825 403.137665,267.634186 
	C405.004913,267.754211 406.870850,267.902496 408.739685,267.988312 
	C412.401642,268.156464 413.349915,266.236877 412.798492,262.910187 
	C411.770569,256.709198 410.944244,250.474625 409.896454,244.277298 
	C409.602539,242.538864 408.828308,240.881638 408.274384,239.187180 
	C407.681732,239.330353 407.089081,239.473541 406.496460,239.616714 
	C407.266022,244.699570 408.035553,249.782440 408.933075,255.745285 
M406.114136,279.803253 
	C408.050568,278.765808 409.986969,277.728363 411.923370,276.690948 
	C411.854889,276.154449 411.786407,275.617981 411.717926,275.081512 
	C406.673004,274.434662 401.628052,273.787781 395.746521,273.033661 
	C398.245178,277.749146 401.275970,279.616058 406.114136,279.803253 
z"/>
<path fill="#F38680" opacity="1.000000" stroke="none" 
	d="
M366.040619,285.328125 
	C367.743195,285.860443 369.532837,286.644958 371.204681,287.629456 
	C381.909485,293.933136 393.700958,295.676270 406.271057,296.009155 
	C407.153748,300.069611 407.610107,304.102844 408.024414,308.569275 
	C389.390594,309.528961 376.512665,299.791107 366.040619,285.328125 
z"/>
<path fill="#F38680" opacity="1.000000" stroke="none" 
	d="
M363.424927,283.885864 
	C363.419281,283.386292 363.732452,282.913757 364.045593,282.441223 
	C364.350311,282.766510 364.655029,283.091797 364.991516,283.709534 
	C364.596771,283.972260 364.170258,283.942596 363.424927,283.885864 
z"/>
<path fill="#F38680" opacity="1.000000" stroke="none" 
	d="
M365.090698,284.210632 
	C365.287323,284.146210 365.583160,284.315460 365.947266,284.740326 
	C365.740326,284.812103 365.465118,284.628204 365.090698,284.210632 
z"/>
<path fill="#202367" opacity="1.000000" stroke="none" 
	d="
M418.853455,259.058716 
	C418.853455,259.058716 418.996704,258.611420 419.391663,258.324707 
	C421.465668,257.124207 423.144684,256.210419 424.823700,255.296646 
	C430.941284,260.602234 428.496307,267.768921 429.115112,274.316864 
	C429.277740,276.037354 430.787628,277.630554 432.091095,279.519287 
	C432.352631,279.996857 432.194519,280.232391 431.700012,280.809937 
	C430.554749,282.082214 429.738434,283.007538 428.922150,283.932861 
	C428.922150,283.932861 428.992218,283.997406 428.710114,284.031311 
	C428.219330,284.346680 428.010651,284.628143 427.801941,284.909607 
	C427.335144,285.238403 426.868317,285.567169 425.979187,286.121033 
	C425.301941,286.502014 425.133514,286.723633 425.051605,287.011017 
	C425.051605,287.011017 425.005096,286.989746 424.739441,287.054840 
	C424.247955,287.381714 424.022156,287.643524 423.796387,287.905334 
	C423.796387,287.905334 423.352783,287.988220 422.938812,288.128143 
	C422.229401,288.406921 422.034210,288.632477 421.939240,288.944794 
	C421.939240,288.944794 421.995117,289.002441 421.594849,289.020935 
	C420.215393,289.278198 419.236176,289.516937 418.853455,289.610260 
	C418.853455,279.233917 418.853455,269.146332 418.853455,259.058716 
z"/>
<path fill="#E1E1E0" opacity="1.000000" stroke="none" 
	d="
M418.588440,259.369659 
	C418.853455,269.146332 418.853455,279.233917 418.853455,289.610260 
	C419.236176,289.516937 420.215393,289.278198 421.570496,288.990173 
	C419.863098,290.254211 417.779816,291.567505 415.313995,292.898254 
	C419.774536,282.216217 417.265594,270.766388 418.588440,259.369659 
z"/>
<path fill="#E1E1E0" opacity="1.000000" stroke="none" 
	d="
M429.305145,283.939087 
	C429.738434,283.007538 430.554749,282.082214 431.648590,281.017151 
	C431.180145,281.900024 430.434143,282.922668 429.305145,283.939087 
z"/>
<path fill="#F1F2F3" opacity="1.000000" stroke="none" 
	d="
M434.176819,277.114258 
	C434.204987,277.140808 434.583618,277.013519 434.770111,276.942078 
	C434.902283,277.204376 434.758575,277.493713 434.334595,277.649292 
	C434.143677,277.559906 434.225494,277.093903 434.225494,277.093903 
	C434.225494,277.093903 434.148621,277.087708 434.176819,277.114258 
z"/>
<path fill="#E1E1E0" opacity="1.000000" stroke="none" 
	d="
M428.058228,284.831665 
	C428.010651,284.628143 428.219330,284.346680 428.686523,283.989929 
	C428.734894,284.194366 428.524719,284.474060 428.058228,284.831665 
z"/>
<path fill="#202367" opacity="1.000000" stroke="none" 
	d="
M432.859863,279.267395 
	C432.710388,279.035858 432.752563,278.683228 433.108124,278.326996 
	C433.389862,278.639008 433.266510,278.913330 432.859863,279.267395 
z"/>
<path fill="#E1E1E0" opacity="1.000000" stroke="none" 
	d="
M425.252258,286.959717 
	C425.133514,286.723633 425.301941,286.502014 425.767639,286.319427 
	C425.891418,286.573181 425.716248,286.778412 425.252258,286.959717 
z"/>
<path fill="#E1E1E0" opacity="1.000000" stroke="none" 
	d="
M424.050476,287.848389 
	C424.022156,287.643524 424.247955,287.381714 424.737366,287.080322 
	C424.768860,287.290955 424.536713,287.541229 424.050476,287.848389 
z"/>
<path fill="#E1E1E0" opacity="1.000000" stroke="none" 
	d="
M422.157227,288.905945 
	C422.034210,288.632477 422.229401,288.406921 422.753662,288.257172 
	C422.862213,288.533539 422.659790,288.740509 422.157227,288.905945 
z"/>
<path fill="#202367" opacity="1.000000" stroke="none" 
	d="
M433.939270,277.200226 
	C434.225494,277.093903 434.143677,277.559906 434.138336,277.796448 
	C434.132996,278.032959 433.765198,278.260345 433.566681,278.346497 
	C433.463104,278.057312 433.558075,277.681915 433.939270,277.200226 
z"/>
<path fill="#E1E1E0" opacity="1.000000" stroke="none" 
	d="
M413.231140,293.897888 
	C413.098175,293.680389 413.272064,293.421356 413.762146,293.134186 
	C413.881927,293.349182 413.701813,293.599304 413.231140,293.897888 
z"/>
<path fill="#FCC2BC" opacity="1.000000" stroke="none" 
	d="
M377.669006,211.146011 
	C378.114868,210.688187 378.560730,210.230392 379.335602,209.359070 
	C380.172241,208.000031 380.679901,207.054474 381.187531,206.108932 
	C381.187531,206.108932 381.098602,206.060349 381.378784,205.910980 
	C382.162537,204.525269 382.666168,203.288910 383.169769,202.052567 
	C383.169769,202.052567 383.076233,202.039398 383.355225,201.842026 
	C384.429291,198.771576 385.224304,195.898499 386.019348,193.025421 
	C386.198700,193.006561 386.378082,192.987701 387.261108,192.958771 
	C392.929932,193.734085 397.895020,194.519440 402.860138,195.304794 
	C402.860138,195.304794 402.885773,195.176605 402.983368,195.457520 
	C403.643311,195.965195 404.205627,196.191925 404.767975,196.418671 
	C404.767975,196.418671 404.881683,196.258957 404.887024,196.504303 
	C405.230957,196.933578 405.569580,197.117523 405.908173,197.301483 
	C406.882019,198.340454 407.855896,199.379440 408.915222,201.072540 
	C409.694153,202.473068 410.387543,203.219482 411.080963,203.965897 
	C411.080963,203.965897 411.009430,203.988724 410.999939,204.339828 
	C412.034271,207.254440 413.078064,209.817932 414.102966,212.564514 
	C413.963715,213.000305 413.763733,213.119705 413.147186,213.219391 
	C412.597046,213.968246 412.383820,214.603455 412.143890,215.164017 
	C412.117188,215.089386 412.275513,215.081406 411.931213,215.262802 
	C411.439240,216.190399 411.291565,216.936584 411.175995,218.076416 
	C410.661469,223.305328 410.114838,228.140640 409.543549,233.194275 
	C407.866058,233.317444 406.125275,233.445251 404.848816,233.538956 
	C403.466370,230.029892 402.249237,226.940491 401.002502,223.889069 
	C400.972870,223.927048 401.061462,223.895294 401.130066,223.538147 
	C399.790466,220.974136 398.382233,218.767273 396.982483,216.413971 
	C396.900177,216.052353 396.740417,215.969070 396.276093,215.727722 
	C389.270905,210.494568 382.910583,211.643082 379.451843,219.246262 
	C377.260956,224.062286 376.489960,229.524200 375.112000,234.586899 
	C371.169647,234.586899 366.874268,234.586899 362.578918,234.586899 
	C363.440948,230.271042 364.055359,225.881378 365.307129,221.681702 
	C365.713654,220.317841 367.747253,219.397736 369.109131,218.370789 
	C370.657867,217.202911 372.287750,216.142685 374.093384,214.782288 
	C374.304382,214.528931 374.321838,214.443176 374.556213,214.319611 
	C374.980865,213.904861 375.171173,213.613678 375.361450,213.322479 
	C375.361450,213.322479 375.393982,213.398666 375.716339,213.254181 
	C376.582153,212.455139 377.125580,211.800583 377.669006,211.146011 
z"/>
<path fill="#090706" opacity="1.000000" stroke="none" 
	d="
M362.270874,234.793457 
	C366.874268,234.586899 371.169647,234.586899 375.112000,234.586899 
	C376.489960,229.524200 377.260956,224.062286 379.451843,219.246262 
	C382.910583,211.643082 389.270905,210.494568 395.885071,215.800583 
	C394.482178,217.499557 392.755554,218.628922 392.073456,220.209167 
	C389.667999,225.781845 387.520477,231.473160 385.469116,237.189102 
	C383.817383,241.791611 382.446136,246.494766 380.950439,251.153259 
	C379.301758,247.455750 377.653076,243.758224 375.546509,239.033768 
	C371.302582,239.233139 366.163696,239.474548 360.623535,239.597260 
	C360.802399,237.985687 361.382629,236.492859 362.270874,234.793457 
z"/>
<path fill="#E1E1E0" opacity="1.000000" stroke="none" 
	d="
M414.121857,212.381439 
	C413.078064,209.817932 412.034271,207.254440 411.017029,204.306396 
	C413.247437,206.549545 414.694092,209.567596 418.762909,210.670090 
	C421.025970,211.283279 423.069397,214.774292 424.130096,217.404541 
	C429.066193,229.644592 430.194397,242.110748 424.931732,254.978546 
	C423.144684,256.210419 421.465668,257.124207 419.418335,258.091370 
	C419.022339,257.691650 418.994720,257.238556 419.356567,256.391876 
	C421.190918,254.681763 423.673828,253.523193 423.902374,252.021530 
	C424.932068,245.256485 426.149719,238.337311 425.685638,231.584595 
	C425.304199,226.034637 422.892670,220.551331 420.908936,215.213913 
	C419.854675,212.377411 417.494263,210.660507 414.121857,212.381439 
z"/>
<path fill="#202367" opacity="1.000000" stroke="none" 
	d="
M402.772949,194.925903 
	C397.895020,194.519440 392.929932,193.734085 387.522583,192.889343 
	C392.486298,191.547043 397.832031,190.811127 402.772949,194.925903 
z"/>
<path fill="#202367" opacity="1.000000" stroke="none" 
	d="
M385.643402,193.086472 
	C385.224304,195.898499 384.429291,198.771576 383.361511,201.888824 
	C383.815002,199.137848 384.541260,196.142685 385.643402,193.086472 
z"/>
<path fill="#202367" opacity="1.000000" stroke="none" 
	d="
M382.821594,202.163971 
	C382.666168,203.288910 382.162537,204.525269 381.388214,205.960770 
	C381.569458,204.865067 382.021423,203.570206 382.821594,202.163971 
z"/>
<path fill="#E1E1E0" opacity="1.000000" stroke="none" 
	d="
M411.016541,203.660645 
	C410.387543,203.219482 409.694153,202.473068 409.009033,201.366104 
	C409.662262,201.788849 410.307190,202.572128 411.016541,203.660645 
z"/>
<path fill="#202367" opacity="1.000000" stroke="none" 
	d="
M380.800842,206.114975 
	C380.679901,207.054474 380.172241,208.000031 379.394409,209.124268 
	C379.554199,208.242310 379.984192,207.181656 380.800842,206.114975 
z"/>
<path fill="#202367" opacity="1.000000" stroke="none" 
	d="
M377.255585,211.130066 
	C377.125580,211.800583 376.582153,212.455139 375.757751,213.254974 
	C375.931946,212.638199 376.387024,211.876144 377.255585,211.130066 
z"/>
<path fill="#202367" opacity="1.000000" stroke="none" 
	d="
M404.705536,196.074524 
	C404.205627,196.191925 403.643311,195.965195 402.921082,195.477386 
	C403.388519,195.387665 404.015808,195.559021 404.705536,196.074524 
z"/>
<path fill="#3C45AC" opacity="1.000000" stroke="none" 
	d="
M310.661407,187.848160 
	C310.829071,187.944702 311.007477,188.105850 311.185883,188.266998 
	C311.075897,188.214600 310.965942,188.162201 310.698792,188.006134 
	C310.541626,187.902466 310.672150,187.912750 310.661407,187.848160 
z"/>
<path fill="#202367" opacity="1.000000" stroke="none" 
	d="
M405.810486,197.019562 
	C405.569580,197.117523 405.230957,196.933578 404.793518,196.474884 
	C405.034027,196.379303 405.373383,196.558487 405.810486,197.019562 
z"/>
<path fill="#202367" opacity="1.000000" stroke="none" 
	d="
M375.056915,213.326935 
	C375.171173,213.613678 374.980865,213.904861 374.532654,214.282745 
	C374.433899,214.023422 374.593140,213.677414 375.056915,213.326935 
z"/>
<path fill="#090706" opacity="1.000000" stroke="none" 
	d="
M414.102966,212.564514 
	C417.494263,210.660507 419.854675,212.377411 420.908936,215.213913 
	C422.892670,220.551331 425.304199,226.034637 425.685638,231.584595 
	C426.149719,238.337311 424.932068,245.256485 423.902374,252.021530 
	C423.673828,253.523193 421.190918,254.681763 419.363892,256.051331 
	C412.674835,251.652832 412.252625,244.421127 410.433990,237.580750 
	C408.417816,237.729187 406.484985,237.871490 404.966583,237.983276 
	C403.858643,242.457886 403.326538,246.790070 401.716614,250.675659 
	C397.802429,260.122589 390.559937,261.461090 383.224976,254.052002 
	C384.472015,252.260269 385.969574,251.082077 386.570740,249.551773 
	C389.544220,241.982285 392.439941,234.373108 395.024933,226.664520 
	C396.105865,223.441101 396.349640,219.936920 396.974030,216.560394 
	C398.382233,218.767273 399.790466,220.974136 400.799316,223.471924 
	C399.582031,224.102295 398.241028,224.242249 398.024170,224.810913 
	C394.428101,234.241135 390.920288,243.706528 387.566589,253.225311 
	C387.223206,254.199875 387.991913,255.566254 388.244568,256.750824 
	C388.703796,256.762207 389.163025,256.773590 389.622284,256.784973 
	C391.160950,253.018677 392.898224,249.319321 394.195404,245.471603 
	C396.609650,238.310394 398.767517,231.062759 401.032135,223.851105 
	C402.249237,226.940491 403.466370,230.029892 404.848816,233.538956 
	C406.125275,233.445251 407.866058,233.317444 409.543549,233.194275 
	C410.114838,228.140640 410.661469,223.305328 411.449585,217.831726 
	C411.885925,216.489426 412.080719,215.785416 412.275513,215.081406 
	C412.275513,215.081406 412.117188,215.089386 412.401611,214.972809 
	C412.952057,214.272751 413.218079,213.689255 413.484100,213.105759 
	C413.763733,213.119705 413.963715,213.000305 414.102966,212.564514 
M422.813141,233.411057 
	C421.100769,237.506958 419.327637,241.579468 417.732971,245.720703 
	C417.451355,246.452072 417.767120,247.539780 418.130005,248.310959 
	C418.230164,248.523712 420.048492,248.369659 420.144867,248.076828 
	C421.862885,242.853455 423.436829,237.582718 425.041809,232.322159 
	C424.387421,232.450348 423.733002,232.578537 422.813141,233.411057 
z"/>
<path fill="#202367" opacity="1.000000" stroke="none" 
	d="
M396.982544,216.413971 
	C396.349640,219.936920 396.105865,223.441101 395.024933,226.664520 
	C392.439941,234.373108 389.544220,241.982285 386.570740,249.551773 
	C385.969574,251.082077 384.472015,252.260269 383.046448,253.737396 
	C382.276917,253.426376 381.848663,252.978714 381.518250,252.127106 
	C381.381409,251.492767 381.146729,251.262390 380.912079,251.031998 
	C380.912079,251.031998 380.985321,251.075470 380.967865,251.114365 
	C382.446136,246.494766 383.817383,241.791611 385.469116,237.189102 
	C387.520477,231.473160 389.667999,225.781845 392.073456,220.209167 
	C392.755554,218.628922 394.482178,217.499557 396.120789,216.090576 
	C396.740417,215.969070 396.900177,216.052353 396.982544,216.413971 
z"/>
<path fill="#F38680" opacity="1.000000" stroke="none" 
	d="
M408.869080,255.305298 
	C408.035553,249.782440 407.266022,244.699570 406.496460,239.616714 
	C407.089081,239.473541 407.681732,239.330353 408.274384,239.187180 
	C408.828308,240.881638 409.602539,242.538864 409.896454,244.277298 
	C410.944244,250.474625 411.770569,256.709198 412.798492,262.910187 
	C413.349915,266.236877 412.401642,268.156464 408.739685,267.988312 
	C406.870850,267.902496 405.004913,267.754211 403.137665,267.634186 
	C403.078369,267.095825 403.019073,266.557465 402.959778,266.019104 
	C405.095337,265.512421 407.230896,265.005768 409.662720,264.428833 
	C409.422577,261.570831 409.177826,258.658051 408.869080,255.305298 
z"/>
<path fill="#E9E9E9" opacity="1.000000" stroke="none" 
	d="
M405.731964,279.858765 
	C401.275970,279.616058 398.245178,277.749146 395.746521,273.033661 
	C401.628052,273.787781 406.673004,274.434662 411.717926,275.081512 
	C411.786407,275.617981 411.854889,276.154449 411.923370,276.690948 
	C409.986969,277.728363 408.050568,278.765808 405.731964,279.858765 
z"/>
<path fill="#090706" opacity="1.000000" stroke="none" 
	d="
M380.955414,251.308609 
	C381.146729,251.262390 381.381409,251.492767 381.464539,251.885925 
	C381.208252,251.894226 381.103516,251.739731 380.955414,251.308609 
z"/>
<path fill="#E1E1E0" opacity="1.000000" stroke="none" 
	d="
M413.147186,213.219391 
	C413.218079,213.689255 412.952057,214.272751 412.428284,215.047440 
	C412.383820,214.603455 412.597046,213.968246 413.147186,213.219391 
z"/>
<path fill="#E1E1E0" opacity="1.000000" stroke="none" 
	d="
M411.931213,215.262802 
	C412.080719,215.785416 411.885925,216.489426 411.417480,217.438110 
	C411.291565,216.936584 411.439240,216.190399 411.931213,215.262802 
z"/>
<path fill="#202367" opacity="1.000000" stroke="none" 
	d="
M401.002502,223.889069 
	C398.767517,231.062759 396.609650,238.310394 394.195404,245.471603 
	C392.898224,249.319321 391.160950,253.018677 389.622284,256.784973 
	C389.163025,256.773590 388.703796,256.762207 388.244568,256.750824 
	C387.991913,255.566254 387.223206,254.199875 387.566589,253.225311 
	C390.920288,243.706528 394.428101,234.241135 398.024170,224.810913 
	C398.241028,224.242249 399.582031,224.102295 400.730713,223.829071 
	C401.061462,223.895294 400.972870,223.927048 401.002502,223.889069 
z"/>
<path fill="#202367" opacity="1.000000" stroke="none" 
	d="
M422.945862,233.058899 
	C423.733002,232.578537 424.387421,232.450348 425.041809,232.322174 
	C423.436829,237.582718 421.862885,242.853455 420.144867,248.076828 
	C420.048492,248.369659 418.230164,248.523712 418.130005,248.310959 
	C417.767120,247.539780 417.451355,246.452072 417.732971,245.720703 
	C419.327637,241.579468 421.100769,237.506958 422.945862,233.058899 
z"/>
</svg>